# xmcd
#
# Track frame offsets:
#	150
#	14774
#	28049
#	41234
#	54593
#	66390
#	80527
#	94360
#	109594
#	124077
#	137347
#	149980
#	163891
#	175444
#	188456
#	201295
#	215049
#	225667
#	236015
#	249529
#	263398
#
# Disc length: 3713 seconds
# Revision: 1
# Processed by: cddbd v1.5.2PL0 Copyright (c) Steve Scherf et al.
# Submitted via: dBpowerAMP V12.0
#
DISCID=3e0e7f15
DTITLE=Various Artist - The real blues: The ultimate collection CD1
DYEAR=2015
DGENRE=Blues
TTITLE0=Mississippi Sheiks - Sitting on top of the world
TTITLE1=Mississippi John Hurt - Stack O'Lee [album version]
TTITLE2=Big Maceo Merriweather - Worried life blues
TTITLE3=Bessie Smith - Nobody knows you when you're down and out [78RPM version]
TTITLE4=Art Tatum - St. Louis blues [album version]
TTITLE5=Charley Patton - High sheriff blues [album version]
TTITLE6=Leroy Carr - How long, how long blues
TTITLE7=Lonnie Johnson - Got the blues for murder only
TTITLE8=Louis Armstrong and His Savoy Ballroom Five - St. James infirmary [album version]
TTITLE9=Tampa Red and Georgia Tom - You can't get that stuff no more [album version]
TTITLE10=Big Bill Broonzy - Long tall mama
TTITLE11=Blind Boy Fuller - Rag, mama, rag
TTITLE12=Curtis Jones - Moonlight lover blues
TTITLE13=Jazz Gillum - Early in the morning [remastered]
TTITLE14=Lucille Bogan - Shave 'em dry I [album version]
TTITLE15=Georgia Bill - Georgia rag [album version]
TTITLE16=Pete Johnson and His Boogie Woogie Boys - Boogie woogie prayer, pt. 1
TTITLE17=Sir Charles Thompson - Mister boogie [album version]
TTITLE18=Blind Lemon Jefferson - Matchbox blues
TTITLE19=Josh White - Black man [album version]
TTITLE20=Blind Willie Johnson - Dark was the night, cold was the ground
EXTD=
EXTT0=
EXTT1=
EXTT2=
EXTT3=
EXTT4=
EXTT5=
EXTT6=
EXTT7=
EXTT8=
EXTT9=
EXTT10=
EXTT11=
EXTT12=
EXTT13=
EXTT14=
EXTT15=
EXTT16=
EXTT17=
EXTT18=
EXTT19=
EXTT20=
PLAYORDER=
